<svg xmlns="http://www.w3.org/2000/svg" width="400.584" height="512.001" viewBox="0 0 400.584 512.001">
  <path id="leaf" d="M455.93,16.313A15,15,0,0,0,443.152,4.7c-61.909-7.738-119.1-5.916-169.983,5.415C208.373,24.542,152.826,54.546,108.063,99.3c-69.807,69.877-69.807,183.576.007,253.459a181.3,181.3,0,0,0,21.472,18.353V497a15,15,0,0,0,30,0V388.758a179.624,179.624,0,0,0,201.982-36c52.835-52.831,41.893-125.624,38.293-166.475-5.5-62.367-10.247-116.229,49.495-154.024a15,15,0,0,0,6.618-15.948Zm-326.65,104.2c52.831-52.821,121.483-82.64,204.882-89.17-35.77,17.427-70.336,42.842-100.516,74.7a378.661,378.661,0,0,0-102.54,227.288c-59.782-57.816-60.7-153.881-1.826-212.817ZM369.931,188.92c4.709,53.408,9.155,103.854-29.627,142.632A149.466,149.466,0,0,1,159.8,355.082a349.074,349.074,0,0,1,95.628-228.411c27.056-28.559,58.748-52.144,91.651-68.205a249.761,249.761,0,0,1,48.113-17.827,128.111,128.111,0,0,0-24.137,52.076c-6.864,31.044-3.944,64.17-1.12,96.205Z" transform="translate(-55.709 0.001)" fill="#024446"/>
</svg>
