<svg xmlns="http://www.w3.org/2000/svg" width="21.354" height="16.015" viewBox="0 0 21.354 16.015">
  <g id="visibility_2_" data-name="visibility(2)" transform="translate(0 -64.008)">
    <g id="Group_227" data-name="Group 227" transform="translate(8.03 69.369)">
      <g id="Group_226" data-name="Group 226" transform="translate(0 0)">
        <path id="Path_104" data-name="Path 104" d="M197.713,192.672a.445.445,0,0,0-.629.629,2.669,2.669,0,1,1-3.774,3.774.445.445,0,0,0-.629.629,3.558,3.558,0,1,0,5.032-5.032Z" transform="translate(-192.55 -192.542)" fill=""/>
      </g>
    </g>
    <g id="Group_229" data-name="Group 229" transform="translate(7.118 68.456)">
      <g id="Group_228" data-name="Group 228" transform="translate(0 0)">
        <path id="Path_105" data-name="Path 105" d="M174.847,170.72a3.523,3.523,0,0,0-4.179,3.5,3.483,3.483,0,0,0,.062.62.445.445,0,0,0,.437.367.394.394,0,0,0,.078-.007.445.445,0,0,0,.36-.515,2.579,2.579,0,0,1-.048-.465,2.637,2.637,0,0,1,3.135-2.622.445.445,0,1,0,.155-.876Z" transform="translate(-170.668 -170.659)" fill=""/>
      </g>
    </g>
    <g id="Group_231" data-name="Group 231" transform="translate(5.565 67.03)">
      <g id="Group_230" data-name="Group 230" transform="translate(0 0)">
        <path id="Path_106" data-name="Path 106" d="M149.118,141.159a21.611,21.611,0,0,0-5.827-4.648.445.445,0,1,0-.408.791,20.907,20.907,0,0,1,5.3,4.144c-1.061,1.149-5.234,5.338-9.634,5.338a10.258,10.258,0,0,1-4.474-1.072.444.444,0,1,0-.386.8,11.125,11.125,0,0,0,4.86,1.161c5.482,0,10.366-5.7,10.572-5.941A.444.444,0,0,0,149.118,141.159Z" transform="translate(-133.435 -136.461)" fill=""/>
      </g>
    </g>
    <g id="Group_233" data-name="Group 233" transform="translate(0 65.787)">
      <g id="Group_232" data-name="Group 232" transform="translate(0 0)">
        <path id="Path_107" data-name="Path 107" d="M13.6,107.171a9.186,9.186,0,0,0-2.919-.512C5.195,106.659.31,112.357.1,112.6a.445.445,0,0,0-.025.542,16.516,16.516,0,0,0,4.081,3.869.442.442,0,0,0,.616-.125.444.444,0,0,0-.125-.616,16.27,16.27,0,0,1-3.633-3.359c1.024-1.112,5.225-5.362,9.657-5.362a8.327,8.327,0,0,1,2.635.465.439.439,0,0,0,.563-.279A.444.444,0,0,0,13.6,107.171Z" transform="translate(0 -106.659)" fill=""/>
      </g>
    </g>
    <g id="Group_235" data-name="Group 235" transform="translate(2.669 64.008)">
      <g id="Group_234" data-name="Group 234" transform="translate(0 0)">
        <path id="Path_108" data-name="Path 108" d="M79.881,64.138a.445.445,0,0,0-.629,0L64.126,79.264a.445.445,0,0,0,.629.629L79.881,64.767A.445.445,0,0,0,79.881,64.138Z" transform="translate(-63.996 -64.008)" fill=""/>
      </g>
    </g>
  </g>
</svg>
