<svg xmlns="http://www.w3.org/2000/svg" width="14.24" height="14.242" viewBox="0 0 14.24 14.242">
  <path id="home" d="M14.357,6.194h0L8.547.384a1.311,1.311,0,0,0-1.854,0L.886,6.19.88,6.2A1.311,1.311,0,0,0,1.753,8.43l.041,0h.231v4.275a1.536,1.536,0,0,0,1.535,1.534H5.832a.417.417,0,0,0,.417-.417V10.473a.7.7,0,0,1,.7-.7H8.29a.7.7,0,0,1,.7.7v3.352a.417.417,0,0,0,.417.417H11.68a1.536,1.536,0,0,0,1.535-1.534V8.432h.215a1.311,1.311,0,0,0,.928-2.238Zm-.591,1.263a.474.474,0,0,1-.337.14H12.8a.417.417,0,0,0-.417.417v4.692a.7.7,0,0,1-.7.7H9.824V10.473A1.536,1.536,0,0,0,8.29,8.938H6.949a1.536,1.536,0,0,0-1.535,1.535v2.935H3.559a.7.7,0,0,1-.7-.7V8.015A.417.417,0,0,0,2.442,7.6H1.8a.476.476,0,0,1-.328-.813h0L7.283.974a.476.476,0,0,1,.674,0l5.808,5.808,0,0A.478.478,0,0,1,13.766,7.458Zm0,0" transform="translate(-0.499)" fill="#024446"/>
</svg>
