<svg xmlns="http://www.w3.org/2000/svg" width="512" height="511.97" viewBox="0 0 512 511.97">
  <g id="package" transform="translate(0 -0.015)">
    <g id="Group_251" data-name="Group 251">
      <path id="Path_132" data-name="Path 132" d="M492.522,118.3,266.433,3.743l-.094-.047a35.345,35.345,0,0,0-32,.3L137.368,55.46a15.094,15.094,0,0,0-2.27,1.205L18.9,118.337A35.136,35.136,0,0,0,0,149.559V362.44a35.134,35.134,0,0,0,18.9,31.221L234.241,507.953l.1.051a35.339,35.339,0,0,0,32,.3L492.522,393.7A35.041,35.041,0,0,0,512,362.18V149.82A35.041,35.041,0,0,0,492.522,118.3ZM248.237,30.569a5.26,5.26,0,0,1,4.705-.042l211.629,107.23-82.364,41.005L175.308,69.275ZM235.424,474.63,32.91,367.147l-.1-.051a5.237,5.237,0,0,1-2.824-4.656V163.091L235.424,270.215Zm15.153-230.335L46.272,137.76,143.3,86.267,349.171,195.21ZM482.009,362.178a5.221,5.221,0,0,1-2.911,4.7L265.414,475.152V270.408L363.8,221.426v51.355a14.995,14.995,0,0,0,29.99,0V206.495l88.219-43.92v199.6Z" fill="#024446"/>
    </g>
  </g>
</svg>
