<svg id="plant" xmlns="http://www.w3.org/2000/svg" width="145.6" height="141.389" viewBox="0 0 145.6 141.389">
  <g id="Group_193" data-name="Group 193" transform="translate(0 0)">
    <path id="Path_95" data-name="Path 95" d="M58.532,14.188C45.812,1.474,20.919,0,3.306,0A3.306,3.306,0,0,0,0,3.306c0,17.62,1.474,42.512,14.188,55.233a30.784,30.784,0,0,0,21.759,7.769,32.966,32.966,0,0,0,22.585-7.769C68.007,49.058,69.745,25.4,58.532,14.188Z" transform="translate(0 0)" fill="#34aa87"/>
    <path id="Path_96" data-name="Path 96" d="M63.015,0C45.4,0,20.5,1.474,7.782,14.188c-11.24,11.24-9.474,34.863,0,44.344A32.974,32.974,0,0,0,30.374,66.3a30.791,30.791,0,0,0,21.759-7.769C64.853,45.812,66.321,20.919,66.321,3.3A3.305,3.305,0,0,0,63.015,0Z" transform="translate(79.279 13.078)" fill="#34aa87"/>
  </g>
  <path id="Path_97" data-name="Path 97" d="M43.5,114.9a3.306,3.306,0,0,1-3.306-3.306c0-70.116-26.281-96.866-35.96-103.484A25.844,25.844,0,0,1,.928,5.6,3.306,3.306,0,0,1,5.6.928,20.358,20.358,0,0,0,7.969,2.654c8.595,5.878,28.84,19.729,35.841,65.163A79.22,79.22,0,0,1,87.3,13.741,3.577,3.577,0,0,1,91.93,15.2a3.068,3.068,0,0,1-1.154,4.182c-.055.031-.112.061-.169.089l-.536.251C53.827,36.763,46.785,83.263,46.785,111.593A3.306,3.306,0,0,1,43.5,114.9Z" transform="translate(26.49 26.49)" fill="#248973"/>
</svg>
