<svg xmlns="http://www.w3.org/2000/svg" width="21.344" height="12.451" viewBox="0 0 21.344 12.451">
  <g id="visibility_3_" data-name="visibility(3)" transform="translate(0 -106.662)">
    <g id="Group_237" data-name="Group 237" transform="translate(0 106.662)">
      <g id="Group_236" data-name="Group 236" transform="translate(0 0)">
        <path id="Path_109" data-name="Path 109" d="M21.265,112.635c-.168-.245-4.207-5.973-10.593-5.973C5.193,106.662.31,112.357.1,112.6a.446.446,0,0,0,0,.574c.205.243,5.088,5.938,10.567,5.938s10.362-5.7,10.567-5.938A.445.445,0,0,0,21.265,112.635Zm-10.593,5.589c-4.392,0-8.569-4.189-9.63-5.336,1.059-1.148,5.231-5.336,9.63-5.336,5.139,0,8.767,4.183,9.653,5.312C19.3,113.974,15.1,118.223,10.672,118.223Z" transform="translate(0 -106.662)" fill=""/>
      </g>
    </g>
    <g id="Group_239" data-name="Group 239" transform="translate(7.115 109.33)">
      <g id="Group_238" data-name="Group 238" transform="translate(0 0)">
        <path id="Path_110" data-name="Path 110" d="M174.219,170.662a3.557,3.557,0,1,0,3.557,3.557A3.561,3.561,0,0,0,174.219,170.662Zm0,6.225a2.668,2.668,0,1,1,2.668-2.668A2.671,2.671,0,0,1,174.219,176.887Z" transform="translate(-170.662 -170.662)" fill=""/>
      </g>
    </g>
  </g>
</svg>
