<svg xmlns="http://www.w3.org/2000/svg" width="173.055" height="188.124" viewBox="0 0 173.055 188.124">
  <path id="Path_118" data-name="Path 118" d="M157.964,191.875l-13.86-34.32H94.935l-13.7,34.32H65.4L113.414,74.725h12.541L173.8,191.875ZM97.9,146.005h42.9l-21.12-54.121ZM81.162,131.589a69.82,69.82,0,0,1-13.654-3.36,39.465,39.465,0,0,1-10.5-5.6,23.836,23.836,0,0,1-6.746-7.859,21.817,21.817,0,0,1-2.383-10.147c0-5.855,3.007-11.506,8.25-15.5a20.676,20.676,0,0,1-6.86-6.547A16.721,16.721,0,0,1,46.625,73.5a12.241,12.241,0,0,1,4.235-9.641c2.864-2.443,7.019-3.734,12.016-3.734h18.25V49.25H27v71.626H15.25V49.25H.75V39.625h14.5v-10.5c0-7.7,2.858-14.127,8.266-18.594C28.886,6.095,36.575,3.75,45.75,3.75A55.937,55.937,0,0,1,61.3,5.932a55.3,55.3,0,0,1,12.6,5.428A50.418,50.418,0,0,1,89.5,25.25L81.374,32a43.806,43.806,0,0,0-35.75-17.876c-5.991,0-10.639,1.3-13.812,3.859C28.619,20.561,27,24.351,27,29.25V39.625h79V49.25H92.624V69.875H65.5c-2.515,0-4.391.526-5.578,1.562a4.811,4.811,0,0,0-1.547,3.812c0,3.581,2.43,7.086,6.5,9.375a36.447,36.447,0,0,1,11.375-1.75,23.984,23.984,0,0,1,12.6,3.139,16.667,16.667,0,0,1,6.809,7.813l-7.434,19.366-7.349-4.318c3.5-3.059,5.125-5.918,5.125-9a6.254,6.254,0,0,0-2.469-5.062,11.471,11.471,0,0,0-7.156-2.062,24.362,24.362,0,0,0-6.889.931A16.469,16.469,0,0,0,64.2,96.266a11.679,11.679,0,0,0-3.385,3.92,10.565,10.565,0,0,0-1.193,4.939,11.812,11.812,0,0,0,1.25,5.412,13.709,13.709,0,0,0,4.193,4.76,28.112,28.112,0,0,0,7.8,3.824,66.372,66.372,0,0,0,12.079,2.6l-3.787,9.865ZM95.312,23.328A7.786,7.786,0,0,1,93,17.75a8.756,8.756,0,0,1,2.312-6.078A7.759,7.759,0,0,1,101,9.25a8.127,8.127,0,0,1,5.907,2.422,8.645,8.645,0,0,1,2.344,6.078,7.693,7.693,0,0,1-2.344,5.578,8.411,8.411,0,0,1-5.907,2.3A8.021,8.021,0,0,1,95.312,23.328Z" transform="translate(-0.75 -3.75)"/>
</svg>
