<svg xmlns="http://www.w3.org/2000/svg" xmlns:xlink="http://www.w3.org/1999/xlink" width="309.644" height="203" viewBox="0 0 309.644 203">
  <defs>
    <filter id="Rectangle_146" x="67" y="45" width="235" height="87" filterUnits="userSpaceOnUse">
      <feOffset dy="3" input="SourceAlpha"/>
      <feGaussianBlur stdDeviation="3" result="blur"/>
      <feFlood flood-color="#8bbaaa"/>
      <feComposite operator="in" in2="blur"/>
      <feComposite in="SourceGraphic"/>
    </filter>
    <filter id="Path_138" x="25.717" y="91.989" width="234.226" height="86.588" filterUnits="userSpaceOnUse">
      <feOffset dy="3" input="SourceAlpha"/>
      <feGaussianBlur stdDeviation="3" result="blur-2"/>
      <feFlood flood-color="#8bbaaa"/>
      <feComposite operator="in" in2="blur-2"/>
      <feComposite in="SourceGraphic"/>
    </filter>
  </defs>
  <g id="Group_274" data-name="Group 274" transform="translate(-667.971 -124.55)">
    <rect id="Rectangle_147" data-name="Rectangle 147" width="134" height="9" rx="4.5" transform="translate(758.971 218.55)" fill="#b6e1d4"/>
    <g id="Group_271" data-name="Group 271" transform="translate(744.205 175.943)">
      <g transform="matrix(1, 0, 0, 1, -76.23, -51.39)" filter="url(#Rectangle_146)">
        <rect id="Rectangle_146-2" data-name="Rectangle 146" width="217" height="69" rx="9" transform="translate(76 51)" fill="#b6e1d4"/>
      </g>
      <path id="Path_137" data-name="Path 137" d="M4.069,0h60.45a4.069,4.069,0,1,1,0,8.138H4.069A4.069,4.069,0,0,1,4.069,0Z" transform="translate(13.121 21.022)" fill="#8bbaaa"/>
      <rect id="Rectangle_149" data-name="Rectangle 149" width="134" height="8" rx="4" transform="translate(14.766 39.607)" fill="#8bbaaa"/>
    </g>
    <g id="Group_270" data-name="Group 270" transform="translate(702.688 222.539)">
      <g transform="matrix(1, 0, 0, 1, -34.72, -97.99)" filter="url(#Path_138)">
        <path id="Path_138-2" data-name="Path 138" d="M10.463,0h195.3a10.463,10.463,0,0,1,10.463,10.463V58.125a10.463,10.463,0,0,1-10.463,10.463H10.463A10.463,10.463,0,0,1,0,58.125V10.463A10.463,10.463,0,0,1,10.463,0Z" transform="translate(34.72 97.99)" fill="#eef8f5"/>
      </g>
      <path id="Path_136" data-name="Path 136" d="M4.069,0h60.45a4.069,4.069,0,1,1,0,8.138H4.069A4.069,4.069,0,0,1,4.069,0Z" transform="translate(12.788 20.925)" fill="#8bbaaa"/>
      <rect id="Rectangle_143" data-name="Rectangle 143" width="135" height="8" rx="4" transform="translate(12.283 40.011)" fill="#b6e1d4"/>
    </g>
    <path id="Exclusion_1" data-name="Exclusion 1" d="M4.5,9A4.5,4.5,0,1,1,9,4.5,4.505,4.505,0,0,1,4.5,9Zm0-7.5a3,3,0,1,0,3,3A3,3,0,0,0,4.5,1.5Z" transform="translate(875.971 144.55)" fill="#b6e1d4"/>
    <circle id="Ellipse_16" data-name="Ellipse 16" cx="4" cy="4" r="4" transform="translate(933.971 272.55)" fill="#b6e1d4"/>
    <g id="Group_272" data-name="Group 272" transform="translate(843.352 134.829) rotate(45)">
      <rect id="Rectangle_150" data-name="Rectangle 150" width="1.163" height="8.139" rx="0.581" transform="translate(3.488 0)" fill="#8bbaaa"/>
      <rect id="Rectangle_151" data-name="Rectangle 151" width="1.162" height="8.138" rx="0.581" transform="translate(8.138 3.488) rotate(90)" fill="#8bbaaa"/>
    </g>
    <path id="Exclusion_2" data-name="Exclusion 2" d="M4.5,9A4.5,4.5,0,1,1,9,4.5,4.505,4.505,0,0,1,4.5,9Zm0-7.5a3,3,0,1,0,3,3A3,3,0,0,0,4.5,1.5Z" transform="translate(712.971 144.55)" fill="#b6e1d4"/>
    <ellipse id="Ellipse_19" data-name="Ellipse 19" cx="4" cy="4.5" rx="4" ry="4.5" transform="translate(676.971 175.55)" fill="#b6e1d4"/>
    <g id="Group_273" data-name="Group 273" transform="translate(715.477 204.579) rotate(45)">
      <rect id="Rectangle_150-2" data-name="Rectangle 150" width="1.163" height="8.139" rx="0.581" transform="translate(3.488 0)" fill="#8bbaaa"/>
      <rect id="Rectangle_151-2" data-name="Rectangle 151" width="1.162" height="8.138" rx="0.581" transform="translate(8.138 3.488) rotate(90)" fill="#8bbaaa"/>
    </g>
    <path id="Exclusion_3" data-name="Exclusion 3" d="M4.5,0A4.5,4.5,0,1,0,9,4.5,4.506,4.506,0,0,0,4.5,0Zm0,7.5a3,3,0,1,1,3-3A3,3,0,0,1,4.5,7.5Z" transform="translate(676.971 295.55) rotate(180)" fill="#b6e1d4"/>
    <ellipse id="Ellipse_22" data-name="Ellipse 22" cx="4" cy="4.5" rx="4" ry="4.5" transform="translate(704.971 318.55)" fill="#b6e1d4"/>
    <ellipse id="Ellipse_25" data-name="Ellipse 25" cx="4" cy="4.5" rx="4" ry="4.5" transform="translate(925.971 124.55)" fill="#b6e1d4"/>
    <g id="Group_277" data-name="Group 277" transform="translate(969.477 139.94)">
      <rect id="Rectangle_150-3" data-name="Rectangle 150" width="1.163" height="8.139" rx="0.581" transform="translate(3.488 0)" fill="#8bbaaa"/>
      <rect id="Rectangle_151-3" data-name="Rectangle 151" width="1.162" height="8.138" rx="0.581" transform="translate(8.138 3.488) rotate(90)" fill="#8bbaaa"/>
    </g>
  </g>
</svg>
