<svg xmlns="http://www.w3.org/2000/svg" xmlns:xlink="http://www.w3.org/1999/xlink" width="292.218" height="199.255" viewBox="0 0 292.218 199.255">
  <defs>
    <filter id="Path_139" x="63.575" y="81.292" width="156.422" height="103.964" filterUnits="userSpaceOnUse">
      <feOffset dy="3" input="SourceAlpha"/>
      <feGaussianBlur stdDeviation="3" result="blur"/>
      <feFlood flood-color="#8bbaaa"/>
      <feComposite operator="in" in2="blur"/>
      <feComposite in="SourceGraphic"/>
    </filter>
  </defs>
  <g id="Group_274" data-name="Group 274" transform="translate(-676.971 -122.295)">
    <path id="Exclusion_1" data-name="Exclusion 1" d="M4.5,9A4.5,4.5,0,1,1,9,4.5,4.505,4.505,0,0,1,4.5,9Zm0-7.5a3,3,0,1,0,3,3A3,3,0,0,0,4.5,1.5Z" transform="translate(876.971 129.55)" fill="#b6e1d4"/>
    <circle id="Ellipse_16" data-name="Ellipse 16" cx="4" cy="4" r="4" transform="translate(933.971 272.55)" fill="#b6e1d4"/>
    <g id="Group_272" data-name="Group 272" transform="translate(844.352 119.829) rotate(45)">
      <rect id="Rectangle_150" data-name="Rectangle 150" width="1.163" height="8.139" rx="0.581" transform="translate(3.488 0)" fill="#8bbaaa"/>
      <rect id="Rectangle_151" data-name="Rectangle 151" width="1.162" height="8.138" rx="0.581" transform="translate(8.138 3.488) rotate(90)" fill="#8bbaaa"/>
    </g>
    <path id="Exclusion_2" data-name="Exclusion 2" d="M4.5,9A4.5,4.5,0,1,1,9,4.5,4.505,4.505,0,0,1,4.5,9Zm0-7.5a3,3,0,1,0,3,3A3,3,0,0,0,4.5,1.5Z" transform="translate(712.971 144.55)" fill="#b6e1d4"/>
    <ellipse id="Ellipse_19" data-name="Ellipse 19" cx="4" cy="4.5" rx="4" ry="4.5" transform="translate(676.971 175.55)" fill="#b6e1d4"/>
    <g id="Group_273" data-name="Group 273" transform="translate(715.477 204.579) rotate(45)">
      <rect id="Rectangle_150-2" data-name="Rectangle 150" width="1.163" height="8.139" rx="0.581" transform="translate(3.488 0)" fill="#8bbaaa"/>
      <rect id="Rectangle_151-2" data-name="Rectangle 151" width="1.162" height="8.138" rx="0.581" transform="translate(8.138 3.488) rotate(90)" fill="#8bbaaa"/>
    </g>
    <path id="Exclusion_3" data-name="Exclusion 3" d="M4.5,0A4.5,4.5,0,1,0,9,4.5,4.506,4.506,0,0,0,4.5,0Zm0,7.5a3,3,0,1,1,3-3A3,3,0,0,1,4.5,7.5Z" transform="translate(687.971 289.55) rotate(180)" fill="#b6e1d4"/>
    <ellipse id="Ellipse_22" data-name="Ellipse 22" cx="4" cy="4.5" rx="4" ry="4.5" transform="translate(715.971 312.55)" fill="#b6e1d4"/>
    <ellipse id="Ellipse_25" data-name="Ellipse 25" cx="4" cy="4.5" rx="4" ry="4.5" transform="translate(930.362 153.74) rotate(25)" fill="#b6e1d4"/>
    <g id="Group_277" data-name="Group 277" transform="translate(963.288 186.074) rotate(25)">
      <rect id="Rectangle_150-3" data-name="Rectangle 150" width="1.163" height="8.139" rx="0.581" transform="translate(3.488 0)" fill="#8bbaaa"/>
      <rect id="Rectangle_151-3" data-name="Rectangle 151" width="1.162" height="8.138" rx="0.581" transform="translate(8.138 3.488) rotate(90)" fill="#8bbaaa"/>
    </g>
    <g id="sun" transform="translate(749.546 129.696)">
      <g transform="matrix(1, 0, 0, 1, -72.57, -7.4)" filter="url(#Path_139)">
        <path id="Path_139-2" data-name="Path 139" d="M107.538,171.819a29.2,29.2,0,1,1,0,58.3H22.782a22.791,22.791,0,0,1,0-45.582H24.4A35.463,35.463,0,0,1,94.658,174.8a29.021,29.021,0,0,1,12.88-2.985Z" transform="translate(72.57 -56.91)" fill="#eef8f5"/>
      </g>
      <path id="Path_140" data-name="Path 140" d="M168.277,50.634a2.952,2.952,0,1,1-5.638,1.753q-.043-.137-.072-.277l-3.244-12.263a2.952,2.952,0,1,1,5.638-1.753q.043.137.072.277ZM146.46,61.308a2.959,2.959,0,0,1-4.2,4.169l-8.922-9.019a2.952,2.952,0,1,1,4.2-4.1Zm75.218,50.578a2.96,2.96,0,0,1,1.622-5.694l12.231,3.342a2.96,2.96,0,0,1-1.622,5.694h0ZM223.3,87.651a2.952,2.952,0,0,1-1.476-5.71L234.087,78.7a2.952,2.952,0,0,1,1.476,5.71Zm-10.641-21.8a2.965,2.965,0,0,1-4.185-4.2l9.019-8.922a2.959,2.959,0,0,1,4.169,4.2ZM192.5,52.354a2.96,2.96,0,1,1-5.694-1.622h0L190.144,38.5a2.96,2.96,0,1,1,5.694,1.622Zm-3.244,14.6a30.917,30.917,0,0,1,14.031,46.231,29.2,29.2,0,0,0-30.074-2.466,35.509,35.509,0,0,0-23.375-28.339A30.821,30.821,0,0,1,189.2,66.856Z" transform="translate(-78.632 0)" fill="#b6e1d4"/>
    </g>
  </g>
</svg>
